<?xml version="1.0" standalone="no"?>
<!DOCTYPE svg PUBLIC "-//W3C//DTD SVG 20010904//EN"
 "http://www.w3.org/TR/2001/REC-SVG-20010904/DTD/svg10.dtd">
<svg version="1.0" xmlns="http://www.w3.org/2000/svg"
 width="300.000000pt" height="187.000000pt" viewBox="0 0 300.000000 187.000000"
 preserveAspectRatio="xMidYMid meet">
<metadata>
Created by potrace 1.16, written by Peter Selinger 2001-2019
</metadata>
<g transform="translate(0.000000,187.000000) scale(0.100000,-0.100000)"
fill="#000000" stroke="none">
<path d="M1335 1864 c-121 -8 -322 -35 -410 -56 -247 -57 -530 -208 -691 -367
-143 -141 -192 -227 -221 -391 -28 -157 11 -329 89 -395 17 -14 37 -24 45 -21
8 3 12 2 9 -3 -9 -13 90 -34 129 -28 19 3 65 24 103 46 37 23 75 41 84 41 28
0 60 -35 97 -106 43 -82 72 -96 90 -42 20 61 39 212 45 348 7 149 36 503 42
509 13 14 23 -36 43 -219 48 -427 72 -614 92 -708 21 -99 53 -182 70 -182 30
0 68 207 94 500 18 196 21 220 35 220 11 0 16 -24 40 -189 22 -148 43 -197
101 -227 45 -23 74 -7 154 82 88 98 108 104 252 75 101 -20 138 -21 549 -21
353 0 444 -3 452 -13 29 -35 -41 -161 -132 -240 -176 -152 -530 -318 -816
-383 -90 -21 -352 -23 -500 -5 -386 48 -644 158 -904 385 -54 47 -100 86 -102
86 -2 0 -4 -8 -4 -18 0 -10 27 -46 60 -79 376 -384 1134 -557 1744 -398 373
98 703 276 841 455 87 113 123 216 132 384 5 89 4 103 -12 116 -15 13 -112 16
-664 20 l-646 5 -62 33 c-95 49 -123 45 -217 -35 -22 -18 -50 -33 -62 -33 -59
0 -123 156 -159 383 -3 21 -16 48 -27 59 -20 20 -22 20 -34 3 -22 -30 -33
-109 -49 -345 -9 -124 -20 -259 -25 -300 -5 -41 -12 -105 -15 -142 -4 -36 -12
-74 -20 -85 -13 -17 -14 -17 -24 9 -5 15 -17 75 -25 135 -42 292 -67 459 -71
473 -2 8 -9 53 -14 100 -13 110 -40 290 -48 314 -5 18 -7 17 -19 -6 -17 -32
-37 -203 -64 -548 -29 -368 -29 -370 -70 -285 -22 44 -72 85 -105 85 -10 0
-42 -20 -72 -44 -159 -131 -307 -7 -290 244 8 113 27 173 86 263 27 41 46 78
43 82 -4 4 -2 5 3 4 6 -2 39 26 75 61 129 126 351 245 541 289 207 49 539 54
767 11 417 -76 851 -325 1014 -581 42 -66 81 -87 136 -73 52 13 71 50 53 101
-35 98 -119 198 -245 292 -108 80 -133 96 -251 154 -179 88 -381 151 -590 181
-105 16 -348 26 -450 20z m-209 -683 c26 -115 86 -254 121 -276 22 -15 26 -14
52 4 16 11 36 32 46 47 21 33 98 68 134 61 15 -3 60 -21 101 -40 147 -67 203
-75 330 -47 90 20 97 20 199 5 73 -11 204 -18 416 -22 170 -2 316 -9 325 -13
10 -6 -11 -9 -60 -10 -42 0 -129 -7 -195 -15 -264 -32 -343 -36 -471 -24
l-122 12 -101 -33 c-122 -39 -166 -38 -286 10 -122 50 -151 54 -188 31 -18
-11 -54 -45 -80 -76 -57 -65 -88 -88 -110 -79 -45 17 -98 219 -141 538 -9 68
8 28 30 -73z"/>
<path d="M2793 1821 c-89 -56 -82 -191 12 -235 69 -33 143 -4 178 68 23 49 14
99 -28 144 -41 45 -111 55 -162 23z m117 -16 c41 -21 60 -53 60 -101 0 -53
-29 -90 -81 -104 -94 -26 -170 72 -124 160 28 54 90 73 145 45z"/>
<path d="M1515 530 c3 -5 0 -7 -8 -4 -9 3 -24 -7 -37 -23 -18 -22 -21 -37 -17
-72 3 -27 12 -50 23 -58 22 -16 66 -17 82 -1 9 9 12 9 12 1 0 -22 -45 -64 -70
-66 -26 -1 -42 -15 -34 -29 9 -14 55 -9 85 9 71 42 80 211 13 242 -31 14 -57
14 -49 1z"/>
<path d="M1668 510 c-27 -28 -30 -36 -25 -77 6 -58 28 -76 79 -70 34 5 37 3
28 -13 -14 -27 -50 -49 -67 -43 -16 6 -35 -15 -27 -29 10 -16 62 -8 89 14 36
28 55 76 55 138 0 44 -5 56 -29 81 -38 37 -65 37 -103 -1z"/>
<path d="M1881 528 c-35 -19 -50 -46 -31 -58 10 -6 18 -3 28 11 17 25 59 25
67 -1 8 -25 -7 -51 -47 -85 -39 -33 -57 -62 -58 -92 0 -22 4 -23 70 -23 61 0
70 2 70 18 0 15 -7 18 -34 17 -72 -2 -74 7 -18 61 60 57 74 97 45 131 -23 28
-61 37 -92 21z"/>
</g>
</svg>
